<svg id="visual" viewBox="0 0 900 600" width="900" height="600" xmlns="http://www.w3.org/2000/svg" xmlns:xlink="http://www.w3.org/1999/xlink" version="1.1"><rect x="0" y="0" width="900" height="600" fill="#002233"></rect><path d="M0 460L21.5 450.2C43 440.3 86 420.7 128.8 415.7C171.7 410.7 214.3 420.3 257.2 419.2C300 418 343 406 385.8 404.8C428.7 403.7 471.3 413.3 514.2 428C557 442.7 600 462.3 642.8 459C685.7 455.7 728.3 429.3 771.2 413.2C814 397 857 391 878.5 388L900 385L900 601L878.5 601C857 601 814 601 771.2 601C728.3 601 685.7 601 642.8 601C600 601 557 601 514.2 601C471.3 601 428.7 601 385.8 601C343 601 300 601 257.2 601C214.3 601 171.7 601 128.8 601C86 601 43 601 21.5 601L0 601Z" fill="#0066FF" stroke-linecap="round" stroke-linejoin="miter"></path></svg>